<svg xmlns="http://www.w3.org/2000/svg" viewBox="0 0 256 256" width="256" height="256">
  <circle cx="128.0" cy="128.0" r="112.0" fill="none" stroke="#E87D0D" stroke-width="2"/>
  <polygon points="128.00,128.00 128.00,97.39 98.56,109.80" fill="none" stroke="#E87D0D" stroke-width="1.3" stroke-linejoin="round" stroke-linecap="round"/>
  <polygon points="128.00,128.00 157.44,109.80 128.00,97.39" fill="none" stroke="#E87D0D" stroke-width="1.3" stroke-linejoin="round" stroke-linecap="round"/>
  <polygon points="98.89,79.40 98.56,109.80 128.00,97.39" fill="none" stroke="#E87D0D" stroke-width="1.3" stroke-linejoin="round" stroke-linecap="round"/>
  <polygon points="128.00,97.39 157.44,109.80 157.11,79.40" fill="none" stroke="#E87D0D" stroke-width="1.3" stroke-linejoin="round" stroke-linecap="round"/>
  <polygon points="128.00,69.12 98.89,79.40 128.00,97.39" fill="none" stroke="#E87D0D" stroke-width="1.3" stroke-linejoin="round" stroke-linecap="round"/>
  <polygon points="128.00,69.12 128.00,97.39 157.11,79.40" fill="none" stroke="#E87D0D" stroke-width="1.3" stroke-linejoin="round" stroke-linecap="round"/>
  <polygon points="128.00,186.88 128.00,128.00 72.00,162.61" fill="none" stroke="#E87D0D" stroke-width="1.3" stroke-linejoin="round" stroke-linecap="round"/>
  <polygon points="128.00,186.88 184.00,162.61 128.00,128.00" fill="none" stroke="#E87D0D" stroke-width="1.3" stroke-linejoin="round" stroke-linecap="round"/>
  <polygon points="72.00,93.39 98.56,109.80 98.89,79.40" fill="none" stroke="#E87D0D" stroke-width="1.3" stroke-linejoin="round" stroke-linecap="round"/>
  <polygon points="184.00,93.39 157.11,79.40 157.44,109.80" fill="none" stroke="#E87D0D" stroke-width="1.3" stroke-linejoin="round" stroke-linecap="round"/>
  <polygon points="72.00,93.39 72.00,162.61 128.00,128.00" fill="none" stroke="#E87D0D" stroke-width="1.3" stroke-linejoin="round" stroke-linecap="round"/>
  <polygon points="184.00,162.61 184.00,93.39 128.00,128.00" fill="none" stroke="#E87D0D" stroke-width="1.3" stroke-linejoin="round" stroke-linecap="round"/>
  <polygon points="98.89,79.40 113.31,73.74 104.14,64.02" fill="none" stroke="#E87D0D" stroke-width="1.3" stroke-linejoin="round" stroke-linecap="round"/>
  <polygon points="157.11,79.40 151.86,64.02 142.69,73.74" fill="none" stroke="#E87D0D" stroke-width="1.3" stroke-linejoin="round" stroke-linecap="round"/>
  <polygon points="128.00,69.12 118.92,59.05 113.31,73.74" fill="none" stroke="#E87D0D" stroke-width="1.3" stroke-linejoin="round" stroke-linecap="round"/>
  <polygon points="128.00,69.12 142.69,73.74 137.08,59.05" fill="none" stroke="#E87D0D" stroke-width="1.3" stroke-linejoin="round" stroke-linecap="round"/>
  <polygon points="118.92,59.05 104.14,64.02 113.31,73.74" fill="none" stroke="#E87D0D" stroke-width="1.3" stroke-linejoin="round" stroke-linecap="round"/>
  <polygon points="142.69,73.74 151.86,64.02 137.08,59.05" fill="none" stroke="#E87D0D" stroke-width="1.3" stroke-linejoin="round" stroke-linecap="round"/>
  <polygon points="98.89,79.40 104.14,64.02 89.23,70.19" fill="none" stroke="#E87D0D" stroke-width="1.3" stroke-linejoin="round" stroke-linecap="round"/>
  <polygon points="157.11,79.40 166.77,70.19 151.86,64.02" fill="none" stroke="#E87D0D" stroke-width="1.3" stroke-linejoin="round" stroke-linecap="round"/>
  <polygon points="128.00,69.12 137.08,59.05 118.92,59.05" fill="none" stroke="#E87D0D" stroke-width="1.3" stroke-linejoin="round" stroke-linecap="round"/>
  <polygon points="72.00,93.39 98.89,79.40 80.36,62.17" fill="none" stroke="#E87D0D" stroke-width="1.3" stroke-linejoin="round" stroke-linecap="round"/>
  <polygon points="184.00,93.39 175.64,62.17 157.11,79.40" fill="none" stroke="#E87D0D" stroke-width="1.3" stroke-linejoin="round" stroke-linecap="round"/>
  <polygon points="137.08,59.05 128.00,49.27 118.92,59.05" fill="none" stroke="#E87D0D" stroke-width="1.3" stroke-linejoin="round" stroke-linecap="round"/>
  <polygon points="110.01,50.30 104.14,64.02 118.92,59.05" fill="none" stroke="#E87D0D" stroke-width="1.3" stroke-linejoin="round" stroke-linecap="round"/>
  <polygon points="145.99,50.30 137.08,59.05 151.86,64.02" fill="none" stroke="#E87D0D" stroke-width="1.3" stroke-linejoin="round" stroke-linecap="round"/>
  <polygon points="94.85,55.49 89.23,70.19 104.14,64.02" fill="none" stroke="#E87D0D" stroke-width="1.3" stroke-linejoin="round" stroke-linecap="round"/>
  <polygon points="166.77,70.19 161.15,55.49 151.86,64.02" fill="none" stroke="#E87D0D" stroke-width="1.3" stroke-linejoin="round" stroke-linecap="round"/>
  <polygon points="145.99,50.30 128.00,49.27 137.08,59.05" fill="none" stroke="#E87D0D" stroke-width="1.3" stroke-linejoin="round" stroke-linecap="round"/>
  <polygon points="110.01,50.30 118.92,59.05 128.00,49.27" fill="none" stroke="#E87D0D" stroke-width="1.3" stroke-linejoin="round" stroke-linecap="round"/>
  <polygon points="110.01,50.30 94.85,55.49 104.14,64.02" fill="none" stroke="#E87D0D" stroke-width="1.3" stroke-linejoin="round" stroke-linecap="round"/>
  <polygon points="145.99,50.30 151.86,64.02 161.15,55.49" fill="none" stroke="#E87D0D" stroke-width="1.3" stroke-linejoin="round" stroke-linecap="round"/>
  <polygon points="80.36,62.17 89.23,70.19 94.85,55.49" fill="none" stroke="#E87D0D" stroke-width="1.3" stroke-linejoin="round" stroke-linecap="round"/>
  <polygon points="175.64,62.17 161.15,55.49 166.77,70.19" fill="none" stroke="#E87D0D" stroke-width="1.3" stroke-linejoin="round" stroke-linecap="round"/>
  <polygon points="128.00,186.88 162.61,218.61 184.00,162.61" fill="none" stroke="#E87D0D" stroke-width="1.3" stroke-linejoin="round" stroke-linecap="round"/>
  <polygon points="128.00,186.88 72.00,162.61 93.39,218.61" fill="none" stroke="#E87D0D" stroke-width="1.3" stroke-linejoin="round" stroke-linecap="round"/>
  <polygon points="32.73,128.00 72.00,162.61 72.00,93.39" fill="none" stroke="#E87D0D" stroke-width="1.3" stroke-linejoin="round" stroke-linecap="round"/>
  <polygon points="223.27,128.00 184.00,93.39 184.00,162.61" fill="none" stroke="#E87D0D" stroke-width="1.3" stroke-linejoin="round" stroke-linecap="round"/>
  <polygon points="72.00,93.39 50.92,80.36 49.37,110.01" fill="none" stroke="#E87D0D" stroke-width="1.3" stroke-linejoin="round" stroke-linecap="round"/>
  <polygon points="184.00,93.39 206.63,110.01 205.08,80.36" fill="none" stroke="#E87D0D" stroke-width="1.3" stroke-linejoin="round" stroke-linecap="round"/>
  <polygon points="72.00,93.39 80.36,62.17 50.92,80.36" fill="none" stroke="#E87D0D" stroke-width="1.3" stroke-linejoin="round" stroke-linecap="round"/>
  <polygon points="184.00,93.39 205.08,80.36 175.64,62.17" fill="none" stroke="#E87D0D" stroke-width="1.3" stroke-linejoin="round" stroke-linecap="round"/>
  <polygon points="145.99,50.30 137.09,40.62 128.00,49.27" fill="none" stroke="#E87D0D" stroke-width="1.3" stroke-linejoin="round" stroke-linecap="round"/>
  <polygon points="110.01,50.30 128.00,49.27 118.91,40.62" fill="none" stroke="#E87D0D" stroke-width="1.3" stroke-linejoin="round" stroke-linecap="round"/>
  <polygon points="110.01,50.30 101.45,43.03 94.85,55.49" fill="none" stroke="#E87D0D" stroke-width="1.3" stroke-linejoin="round" stroke-linecap="round"/>
  <polygon points="145.99,50.30 161.15,55.49 154.55,43.03" fill="none" stroke="#E87D0D" stroke-width="1.3" stroke-linejoin="round" stroke-linecap="round"/>
  <polygon points="80.36,62.17 94.85,55.49 86.36,48.80" fill="none" stroke="#E87D0D" stroke-width="1.3" stroke-linejoin="round" stroke-linecap="round"/>
  <polygon points="175.64,62.17 169.64,48.80 161.15,55.49" fill="none" stroke="#E87D0D" stroke-width="1.3" stroke-linejoin="round" stroke-linecap="round"/>
  <polygon points="137.09,40.62 118.91,40.62 128.00,49.27" fill="none" stroke="#E87D0D" stroke-width="1.3" stroke-linejoin="round" stroke-linecap="round"/>
  <polygon points="145.99,50.30 154.55,43.03 137.09,40.62" fill="none" stroke="#E87D0D" stroke-width="1.3" stroke-linejoin="round" stroke-linecap="round"/>
  <polygon points="110.01,50.30 118.91,40.62 101.45,43.03" fill="none" stroke="#E87D0D" stroke-width="1.3" stroke-linejoin="round" stroke-linecap="round"/>
  <polygon points="86.36,48.80 94.85,55.49 101.45,43.03" fill="none" stroke="#E87D0D" stroke-width="1.3" stroke-linejoin="round" stroke-linecap="round"/>
  <polygon points="154.55,43.03 161.15,55.49 169.64,48.80" fill="none" stroke="#E87D0D" stroke-width="1.3" stroke-linejoin="round" stroke-linecap="round"/>
  <polygon points="80.36,62.17 70.50,55.58 64.80,70.50" fill="none" stroke="#E87D0D" stroke-width="1.3" stroke-linejoin="round" stroke-linecap="round"/>
  <polygon points="175.64,62.17 191.20,70.50 185.50,55.58" fill="none" stroke="#E87D0D" stroke-width="1.3" stroke-linejoin="round" stroke-linecap="round"/>
  <polygon points="80.36,62.17 86.36,48.80 70.50,55.58" fill="none" stroke="#E87D0D" stroke-width="1.3" stroke-linejoin="round" stroke-linecap="round"/>
  <polygon points="175.64,62.17 185.50,55.58 169.64,48.80" fill="none" stroke="#E87D0D" stroke-width="1.3" stroke-linejoin="round" stroke-linecap="round"/>
  <polygon points="128.00,186.88 93.39,218.61 162.61,218.61" fill="none" stroke="#E87D0D" stroke-width="1.3" stroke-linejoin="round" stroke-linecap="round"/>
  <polygon points="128.00,32.73 118.91,40.62 137.09,40.62" fill="none" stroke="#E87D0D" stroke-width="1.3" stroke-linejoin="round" stroke-linecap="round"/>
  <polygon points="50.92,80.36 64.80,70.50 55.58,64.80" fill="none" stroke="#E87D0D" stroke-width="1.3" stroke-linejoin="round" stroke-linecap="round"/>
  <polygon points="205.08,80.36 200.42,64.80 191.20,70.50" fill="none" stroke="#E87D0D" stroke-width="1.3" stroke-linejoin="round" stroke-linecap="round"/>
  <polygon points="145.52,33.90 137.09,40.62 154.55,43.03" fill="none" stroke="#E87D0D" stroke-width="1.3" stroke-linejoin="round" stroke-linecap="round"/>
  <polygon points="101.45,43.03 118.91,40.62 110.48,33.90" fill="none" stroke="#E87D0D" stroke-width="1.3" stroke-linejoin="round" stroke-linecap="round"/>
  <polygon points="64.80,70.50 70.50,55.58 55.58,64.80" fill="none" stroke="#E87D0D" stroke-width="1.3" stroke-linejoin="round" stroke-linecap="round"/>
  <polygon points="191.20,70.50 200.42,64.80 185.50,55.58" fill="none" stroke="#E87D0D" stroke-width="1.3" stroke-linejoin="round" stroke-linecap="round"/>
  <polygon points="49.37,110.01 50.92,80.36 31.38,98.89" fill="none" stroke="#E87D0D" stroke-width="1.3" stroke-linejoin="round" stroke-linecap="round"/>
  <polygon points="224.62,98.89 205.08,80.36 206.63,110.01" fill="none" stroke="#E87D0D" stroke-width="1.3" stroke-linejoin="round" stroke-linecap="round"/>
  <polygon points="93.39,37.39 86.36,48.80 101.45,43.03" fill="none" stroke="#E87D0D" stroke-width="1.3" stroke-linejoin="round" stroke-linecap="round"/>
  <polygon points="162.61,37.39 154.55,43.03 169.64,48.80" fill="none" stroke="#E87D0D" stroke-width="1.3" stroke-linejoin="round" stroke-linecap="round"/>
  <polygon points="128.00,32.73 137.09,40.62 145.52,33.90" fill="none" stroke="#E87D0D" stroke-width="1.3" stroke-linejoin="round" stroke-linecap="round"/>
  <polygon points="128.00,32.73 110.48,33.90 118.91,40.62" fill="none" stroke="#E87D0D" stroke-width="1.3" stroke-linejoin="round" stroke-linecap="round"/>
  <polygon points="32.73,128.00 49.37,110.01 31.38,98.89" fill="none" stroke="#E87D0D" stroke-width="1.3" stroke-linejoin="round" stroke-linecap="round"/>
  <polygon points="223.27,128.00 224.62,98.89 206.63,110.01" fill="none" stroke="#E87D0D" stroke-width="1.3" stroke-linejoin="round" stroke-linecap="round"/>
  <polygon points="223.27,128.00 184.00,162.61 218.61,184.00" fill="none" stroke="#E87D0D" stroke-width="1.3" stroke-linejoin="round" stroke-linecap="round"/>
  <polygon points="32.73,128.00 37.39,184.00 72.00,162.61" fill="none" stroke="#E87D0D" stroke-width="1.3" stroke-linejoin="round" stroke-linecap="round"/>
  <polygon points="77.15,43.11 70.50,55.58 86.36,48.80" fill="none" stroke="#E87D0D" stroke-width="1.3" stroke-linejoin="round" stroke-linecap="round"/>
  <polygon points="169.64,48.80 185.50,55.58 178.85,43.11" fill="none" stroke="#E87D0D" stroke-width="1.3" stroke-linejoin="round" stroke-linecap="round"/>
  <polygon points="162.61,37.39 145.52,33.90 154.55,43.03" fill="none" stroke="#E87D0D" stroke-width="1.3" stroke-linejoin="round" stroke-linecap="round"/>
  <polygon points="93.39,37.39 101.45,43.03 110.48,33.90" fill="none" stroke="#E87D0D" stroke-width="1.3" stroke-linejoin="round" stroke-linecap="round"/>
  <polygon points="218.61,184.00 184.00,162.61 162.61,218.61" fill="none" stroke="#E87D0D" stroke-width="1.3" stroke-linejoin="round" stroke-linecap="round"/>
  <polygon points="93.39,218.61 72.00,162.61 37.39,184.00" fill="none" stroke="#E87D0D" stroke-width="1.3" stroke-linejoin="round" stroke-linecap="round"/>
  <polygon points="93.39,37.39 77.15,43.11 86.36,48.80" fill="none" stroke="#E87D0D" stroke-width="1.3" stroke-linejoin="round" stroke-linecap="round"/>
  <polygon points="162.61,37.39 169.64,48.80 178.85,43.11" fill="none" stroke="#E87D0D" stroke-width="1.3" stroke-linejoin="round" stroke-linecap="round"/>
  <polygon points="62.17,50.92 55.58,64.80 70.50,55.58" fill="none" stroke="#E87D0D" stroke-width="1.3" stroke-linejoin="round" stroke-linecap="round"/>
  <polygon points="193.83,50.92 185.50,55.58 200.42,64.80" fill="none" stroke="#E87D0D" stroke-width="1.3" stroke-linejoin="round" stroke-linecap="round"/>
  <polygon points="62.17,50.92 70.50,55.58 77.15,43.11" fill="none" stroke="#E87D0D" stroke-width="1.3" stroke-linejoin="round" stroke-linecap="round"/>
  <polygon points="193.83,50.92 178.85,43.11 185.50,55.58" fill="none" stroke="#E87D0D" stroke-width="1.3" stroke-linejoin="round" stroke-linecap="round"/>
  <polygon points="128.00,32.73 118.78,25.75 110.48,33.90" fill="none" stroke="#E87D0D" stroke-width="1.3" stroke-linejoin="round" stroke-linecap="round"/>
  <polygon points="128.00,32.73 145.52,33.90 137.22,25.75" fill="none" stroke="#E87D0D" stroke-width="1.3" stroke-linejoin="round" stroke-linecap="round"/>
  <polygon points="93.39,37.39 110.48,33.90 101.27,28.21" fill="none" stroke="#E87D0D" stroke-width="1.3" stroke-linejoin="round" stroke-linecap="round"/>
  <polygon points="162.61,37.39 154.73,28.21 145.52,33.90" fill="none" stroke="#E87D0D" stroke-width="1.3" stroke-linejoin="round" stroke-linecap="round"/>
  <polygon points="93.39,37.39 86.00,33.48 77.15,43.11" fill="none" stroke="#E87D0D" stroke-width="1.3" stroke-linejoin="round" stroke-linecap="round"/>
  <polygon points="162.61,37.39 178.85,43.11 170.00,33.48" fill="none" stroke="#E87D0D" stroke-width="1.3" stroke-linejoin="round" stroke-linecap="round"/>
  <polygon points="37.39,72.00 31.38,98.89 50.92,80.36" fill="none" stroke="#E87D0D" stroke-width="1.3" stroke-linejoin="round" stroke-linecap="round"/>
  <polygon points="218.61,72.00 205.08,80.36 224.62,98.89" fill="none" stroke="#E87D0D" stroke-width="1.3" stroke-linejoin="round" stroke-linecap="round"/>
  <polygon points="128.00,32.73 137.22,25.75 118.78,25.75" fill="none" stroke="#E87D0D" stroke-width="1.3" stroke-linejoin="round" stroke-linecap="round"/>
  <polygon points="37.39,72.00 50.92,80.36 62.17,50.92" fill="none" stroke="#E87D0D" stroke-width="1.3" stroke-linejoin="round" stroke-linecap="round"/>
  <polygon points="218.61,72.00 193.83,50.92 205.08,80.36" fill="none" stroke="#E87D0D" stroke-width="1.3" stroke-linejoin="round" stroke-linecap="round"/>
  <polygon points="110.48,33.90 118.78,25.75 101.27,28.21" fill="none" stroke="#E87D0D" stroke-width="1.3" stroke-linejoin="round" stroke-linecap="round"/>
  <polygon points="154.73,28.21 137.22,25.75 145.52,33.90" fill="none" stroke="#E87D0D" stroke-width="1.3" stroke-linejoin="round" stroke-linecap="round"/>
  <polygon points="93.39,37.39 101.27,28.21 86.00,33.48" fill="none" stroke="#E87D0D" stroke-width="1.3" stroke-linejoin="round" stroke-linecap="round"/>
  <polygon points="162.61,37.39 170.00,33.48 154.73,28.21" fill="none" stroke="#E87D0D" stroke-width="1.3" stroke-linejoin="round" stroke-linecap="round"/>
  <polygon points="62.17,50.92 77.15,43.11 70.19,40.25" fill="none" stroke="#E87D0D" stroke-width="1.3" stroke-linejoin="round" stroke-linecap="round"/>
  <polygon points="193.83,50.92 185.81,40.25 178.85,43.11" fill="none" stroke="#E87D0D" stroke-width="1.3" stroke-linejoin="round" stroke-linecap="round"/>
  <polygon points="32.73,128.00 31.38,98.89 20.26,128.00" fill="none" stroke="#E87D0D" stroke-width="1.3" stroke-linejoin="round" stroke-linecap="round"/>
  <polygon points="223.27,128.00 235.74,128.00 224.62,98.89" fill="none" stroke="#E87D0D" stroke-width="1.3" stroke-linejoin="round" stroke-linecap="round"/>
  <polygon points="86.00,33.48 70.19,40.25 77.15,43.11" fill="none" stroke="#E87D0D" stroke-width="1.3" stroke-linejoin="round" stroke-linecap="round"/>
  <polygon points="178.85,43.11 185.81,40.25 170.00,33.48" fill="none" stroke="#E87D0D" stroke-width="1.3" stroke-linejoin="round" stroke-linecap="round"/>
  <polygon points="62.17,50.92 55.49,49.34 48.80,60.63" fill="none" stroke="#E87D0D" stroke-width="1.3" stroke-linejoin="round" stroke-linecap="round"/>
  <polygon points="193.83,50.92 207.20,60.63 200.51,49.34" fill="none" stroke="#E87D0D" stroke-width="1.3" stroke-linejoin="round" stroke-linecap="round"/>
  <polygon points="62.17,50.92 70.19,40.25 55.49,49.34" fill="none" stroke="#E87D0D" stroke-width="1.3" stroke-linejoin="round" stroke-linecap="round"/>
  <polygon points="193.83,50.92 200.51,49.34 185.81,40.25" fill="none" stroke="#E87D0D" stroke-width="1.3" stroke-linejoin="round" stroke-linecap="round"/>
  <polygon points="137.22,25.75 128.00,20.05 118.78,25.75" fill="none" stroke="#E87D0D" stroke-width="1.3" stroke-linejoin="round" stroke-linecap="round"/>
  <polygon points="109.80,21.48 101.27,28.21 118.78,25.75" fill="none" stroke="#E87D0D" stroke-width="1.3" stroke-linejoin="round" stroke-linecap="round"/>
  <polygon points="146.20,21.48 137.22,25.75 154.73,28.21" fill="none" stroke="#E87D0D" stroke-width="1.3" stroke-linejoin="round" stroke-linecap="round"/>
  <polygon points="101.27,28.21 94.26,25.38 86.00,33.48" fill="none" stroke="#E87D0D" stroke-width="1.3" stroke-linejoin="round" stroke-linecap="round"/>
  <polygon points="170.00,33.48 161.74,25.38 154.73,28.21" fill="none" stroke="#E87D0D" stroke-width="1.3" stroke-linejoin="round" stroke-linecap="round"/>
  <polygon points="162.61,218.61 93.39,218.61 128.00,240.00" fill="none" stroke="#E87D0D" stroke-width="1.3" stroke-linejoin="round" stroke-linecap="round"/>
  <polygon points="79.40,31.38 70.19,40.25 86.00,33.48" fill="none" stroke="#E87D0D" stroke-width="1.3" stroke-linejoin="round" stroke-linecap="round"/>
  <polygon points="176.60,31.38 170.00,33.48 185.81,40.25" fill="none" stroke="#E87D0D" stroke-width="1.3" stroke-linejoin="round" stroke-linecap="round"/>
  <polygon points="146.20,21.48 128.00,20.05 137.22,25.75" fill="none" stroke="#E87D0D" stroke-width="1.3" stroke-linejoin="round" stroke-linecap="round"/>
  <polygon points="109.80,21.48 118.78,25.75 128.00,20.05" fill="none" stroke="#E87D0D" stroke-width="1.3" stroke-linejoin="round" stroke-linecap="round"/>
  <polygon points="37.39,72.00 48.80,60.63 43.03,60.04" fill="none" stroke="#E87D0D" stroke-width="1.3" stroke-linejoin="round" stroke-linecap="round"/>
  <polygon points="218.61,72.00 212.97,60.04 207.20,60.63" fill="none" stroke="#E87D0D" stroke-width="1.3" stroke-linejoin="round" stroke-linecap="round"/>
  <polygon points="109.80,21.48 94.26,25.38 101.27,28.21" fill="none" stroke="#E87D0D" stroke-width="1.3" stroke-linejoin="round" stroke-linecap="round"/>
  <polygon points="146.20,21.48 154.73,28.21 161.74,25.38" fill="none" stroke="#E87D0D" stroke-width="1.3" stroke-linejoin="round" stroke-linecap="round"/>
  <polygon points="79.40,31.38 86.00,33.48 94.26,25.38" fill="none" stroke="#E87D0D" stroke-width="1.3" stroke-linejoin="round" stroke-linecap="round"/>
  <polygon points="176.60,31.38 161.74,25.38 170.00,33.48" fill="none" stroke="#E87D0D" stroke-width="1.3" stroke-linejoin="round" stroke-linecap="round"/>
  <polygon points="37.39,72.00 21.48,98.56 31.38,98.89" fill="none" stroke="#E87D0D" stroke-width="1.3" stroke-linejoin="round" stroke-linecap="round"/>
  <polygon points="218.61,72.00 224.62,98.89 234.52,98.56" fill="none" stroke="#E87D0D" stroke-width="1.3" stroke-linejoin="round" stroke-linecap="round"/>
  <polygon points="48.80,60.63 55.49,49.34 43.03,60.04" fill="none" stroke="#E87D0D" stroke-width="1.3" stroke-linejoin="round" stroke-linecap="round"/>
  <polygon points="212.97,60.04 200.51,49.34 207.20,60.63" fill="none" stroke="#E87D0D" stroke-width="1.3" stroke-linejoin="round" stroke-linecap="round"/>
  <polygon points="31.38,98.89 21.48,98.56 20.26,128.00" fill="none" stroke="#E87D0D" stroke-width="1.3" stroke-linejoin="round" stroke-linecap="round"/>
  <polygon points="235.74,128.00 234.52,98.56 224.62,98.89" fill="none" stroke="#E87D0D" stroke-width="1.3" stroke-linejoin="round" stroke-linecap="round"/>
  <polygon points="55.49,49.34 70.19,40.25 64.02,39.22" fill="none" stroke="#E87D0D" stroke-width="1.3" stroke-linejoin="round" stroke-linecap="round"/>
  <polygon points="185.81,40.25 200.51,49.34 191.98,39.22" fill="none" stroke="#E87D0D" stroke-width="1.3" stroke-linejoin="round" stroke-linecap="round"/>
  <polygon points="32.73,128.00 16.00,128.00 37.39,184.00" fill="none" stroke="#E87D0D" stroke-width="1.3" stroke-linejoin="round" stroke-linecap="round"/>
  <polygon points="223.27,128.00 218.61,184.00 240.00,128.00" fill="none" stroke="#E87D0D" stroke-width="1.3" stroke-linejoin="round" stroke-linecap="round"/>
  <polygon points="79.40,31.38 64.02,39.22 70.19,40.25" fill="none" stroke="#E87D0D" stroke-width="1.3" stroke-linejoin="round" stroke-linecap="round"/>
  <polygon points="176.60,31.38 185.81,40.25 191.98,39.22" fill="none" stroke="#E87D0D" stroke-width="1.3" stroke-linejoin="round" stroke-linecap="round"/>
  <polygon points="186.88,223.27 218.61,184.00 162.61,218.61" fill="none" stroke="#E87D0D" stroke-width="1.3" stroke-linejoin="round" stroke-linecap="round"/>
  <polygon points="69.12,223.27 93.39,218.61 37.39,184.00" fill="none" stroke="#E87D0D" stroke-width="1.3" stroke-linejoin="round" stroke-linecap="round"/>
  <polygon points="37.39,72.00 43.03,60.04 33.90,69.84" fill="none" stroke="#E87D0D" stroke-width="1.3" stroke-linejoin="round" stroke-linecap="round"/>
  <polygon points="218.61,72.00 222.10,69.84 212.97,60.04" fill="none" stroke="#E87D0D" stroke-width="1.3" stroke-linejoin="round" stroke-linecap="round"/>
  <polygon points="50.30,49.37 43.03,60.04 55.49,49.34" fill="none" stroke="#E87D0D" stroke-width="1.3" stroke-linejoin="round" stroke-linecap="round"/>
  <polygon points="205.70,49.37 200.51,49.34 212.97,60.04" fill="none" stroke="#E87D0D" stroke-width="1.3" stroke-linejoin="round" stroke-linecap="round"/>
  <polygon points="50.30,49.37 55.49,49.34 64.02,39.22" fill="none" stroke="#E87D0D" stroke-width="1.3" stroke-linejoin="round" stroke-linecap="round"/>
  <polygon points="205.70,49.37 191.98,39.22 200.51,49.34" fill="none" stroke="#E87D0D" stroke-width="1.3" stroke-linejoin="round" stroke-linecap="round"/>
  <polygon points="109.80,21.48 128.00,20.05 118.79,17.38" fill="none" stroke="#E87D0D" stroke-width="1.3" stroke-linejoin="round" stroke-linecap="round"/>
  <polygon points="146.20,21.48 137.21,17.38 128.00,20.05" fill="none" stroke="#E87D0D" stroke-width="1.3" stroke-linejoin="round" stroke-linecap="round"/>
  <polygon points="109.80,21.48 103.35,19.76 94.26,25.38" fill="none" stroke="#E87D0D" stroke-width="1.3" stroke-linejoin="round" stroke-linecap="round"/>
  <polygon points="146.20,21.48 161.74,25.38 152.65,19.76" fill="none" stroke="#E87D0D" stroke-width="1.3" stroke-linejoin="round" stroke-linecap="round"/>
  <polygon points="79.40,31.38 94.26,25.38 87.88,24.48" fill="none" stroke="#E87D0D" stroke-width="1.3" stroke-linejoin="round" stroke-linecap="round"/>
  <polygon points="176.60,31.38 168.12,24.48 161.74,25.38" fill="none" stroke="#E87D0D" stroke-width="1.3" stroke-linejoin="round" stroke-linecap="round"/>
  <polygon points="79.40,31.38 73.74,31.13 64.02,39.22" fill="none" stroke="#E87D0D" stroke-width="1.3" stroke-linejoin="round" stroke-linecap="round"/>
  <polygon points="176.60,31.38 191.98,39.22 182.26,31.13" fill="none" stroke="#E87D0D" stroke-width="1.3" stroke-linejoin="round" stroke-linecap="round"/>
  <polygon points="118.79,17.38 128.00,20.05 137.21,17.38" fill="none" stroke="#E87D0D" stroke-width="1.3" stroke-linejoin="round" stroke-linecap="round"/>
  <polygon points="109.80,21.48 118.79,17.38 103.35,19.76" fill="none" stroke="#E87D0D" stroke-width="1.3" stroke-linejoin="round" stroke-linecap="round"/>
  <polygon points="146.20,21.48 152.65,19.76 137.21,17.38" fill="none" stroke="#E87D0D" stroke-width="1.3" stroke-linejoin="round" stroke-linecap="round"/>
  <polygon points="94.26,25.38 103.35,19.76 87.88,24.48" fill="none" stroke="#E87D0D" stroke-width="1.3" stroke-linejoin="round" stroke-linecap="round"/>
  <polygon points="152.65,19.76 161.74,25.38 168.12,24.48" fill="none" stroke="#E87D0D" stroke-width="1.3" stroke-linejoin="round" stroke-linecap="round"/>
  <polygon points="79.40,31.38 87.88,24.48 73.74,31.13" fill="none" stroke="#E87D0D" stroke-width="1.3" stroke-linejoin="round" stroke-linecap="round"/>
  <polygon points="176.60,31.38 182.26,31.13 168.12,24.48" fill="none" stroke="#E87D0D" stroke-width="1.3" stroke-linejoin="round" stroke-linecap="round"/>
  <polygon points="186.88,223.27 162.61,218.61 128.00,240.00" fill="none" stroke="#E87D0D" stroke-width="1.3" stroke-linejoin="round" stroke-linecap="round"/>
  <polygon points="69.12,223.27 128.00,240.00 93.39,218.61" fill="none" stroke="#E87D0D" stroke-width="1.3" stroke-linejoin="round" stroke-linecap="round"/>
  <polygon points="50.30,49.37 40.62,58.53 43.03,60.04" fill="none" stroke="#E87D0D" stroke-width="1.3" stroke-linejoin="round" stroke-linecap="round"/>
  <polygon points="205.70,49.37 212.97,60.04 215.38,58.53" fill="none" stroke="#E87D0D" stroke-width="1.3" stroke-linejoin="round" stroke-linecap="round"/>
  <polygon points="43.03,60.04 40.62,58.53 33.90,69.84" fill="none" stroke="#E87D0D" stroke-width="1.3" stroke-linejoin="round" stroke-linecap="round"/>
  <polygon points="222.10,69.84 215.38,58.53 212.97,60.04" fill="none" stroke="#E87D0D" stroke-width="1.3" stroke-linejoin="round" stroke-linecap="round"/>
  <polygon points="37.39,72.00 32.73,69.12 21.48,98.56" fill="none" stroke="#E87D0D" stroke-width="1.3" stroke-linejoin="round" stroke-linecap="round"/>
  <polygon points="218.61,72.00 234.52,98.56 223.27,69.12" fill="none" stroke="#E87D0D" stroke-width="1.3" stroke-linejoin="round" stroke-linecap="round"/>
  <polygon points="50.30,49.37 64.02,39.22 59.05,40.21" fill="none" stroke="#E87D0D" stroke-width="1.3" stroke-linejoin="round" stroke-linecap="round"/>
  <polygon points="205.70,49.37 196.95,40.21 191.98,39.22" fill="none" stroke="#E87D0D" stroke-width="1.3" stroke-linejoin="round" stroke-linecap="round"/>
  <polygon points="16.00,128.00 20.26,128.00 21.48,98.56" fill="none" stroke="#E87D0D" stroke-width="1.3" stroke-linejoin="round" stroke-linecap="round"/>
  <polygon points="240.00,128.00 234.52,98.56 235.74,128.00" fill="none" stroke="#E87D0D" stroke-width="1.3" stroke-linejoin="round" stroke-linecap="round"/>
  <polygon points="59.05,40.21 64.02,39.22 73.74,31.13" fill="none" stroke="#E87D0D" stroke-width="1.3" stroke-linejoin="round" stroke-linecap="round"/>
  <polygon points="182.26,31.13 191.98,39.22 196.95,40.21" fill="none" stroke="#E87D0D" stroke-width="1.3" stroke-linejoin="round" stroke-linecap="round"/>
  <polygon points="128.00,16.00 118.79,17.38 137.21,17.38" fill="none" stroke="#E87D0D" stroke-width="1.3" stroke-linejoin="round" stroke-linecap="round"/>
  <polygon points="112.55,17.07 103.35,19.76 118.79,17.38" fill="none" stroke="#E87D0D" stroke-width="1.3" stroke-linejoin="round" stroke-linecap="round"/>
  <polygon points="137.21,17.38 152.65,19.76 143.45,17.07" fill="none" stroke="#E87D0D" stroke-width="1.3" stroke-linejoin="round" stroke-linecap="round"/>
  <polygon points="97.39,20.26 87.88,24.48 103.35,19.76" fill="none" stroke="#E87D0D" stroke-width="1.3" stroke-linejoin="round" stroke-linecap="round"/>
  <polygon points="158.61,20.26 152.65,19.76 168.12,24.48" fill="none" stroke="#E87D0D" stroke-width="1.3" stroke-linejoin="round" stroke-linecap="round"/>
  <polygon points="73.74,31.13 87.88,24.48 82.82,25.52" fill="none" stroke="#E87D0D" stroke-width="1.3" stroke-linejoin="round" stroke-linecap="round"/>
  <polygon points="173.18,25.52 168.12,24.48 182.26,31.13" fill="none" stroke="#E87D0D" stroke-width="1.3" stroke-linejoin="round" stroke-linecap="round"/>
  <polygon points="50.30,49.37 49.27,48.34 40.62,58.53" fill="none" stroke="#E87D0D" stroke-width="1.3" stroke-linejoin="round" stroke-linecap="round"/>
  <polygon points="205.70,49.37 215.38,58.53 206.73,48.34" fill="none" stroke="#E87D0D" stroke-width="1.3" stroke-linejoin="round" stroke-linecap="round"/>
  <polygon points="50.30,49.37 59.05,40.21 49.27,48.34" fill="none" stroke="#E87D0D" stroke-width="1.3" stroke-linejoin="round" stroke-linecap="round"/>
  <polygon points="205.70,49.37 206.73,48.34 196.95,40.21" fill="none" stroke="#E87D0D" stroke-width="1.3" stroke-linejoin="round" stroke-linecap="round"/>
  <polygon points="32.73,69.12 33.90,69.84 40.62,58.53" fill="none" stroke="#E87D0D" stroke-width="1.3" stroke-linejoin="round" stroke-linecap="round"/>
  <polygon points="223.27,69.12 215.38,58.53 222.10,69.84" fill="none" stroke="#E87D0D" stroke-width="1.3" stroke-linejoin="round" stroke-linecap="round"/>
  <polygon points="69.12,32.73 59.05,40.21 73.74,31.13" fill="none" stroke="#E87D0D" stroke-width="1.3" stroke-linejoin="round" stroke-linecap="round"/>
  <polygon points="186.88,32.73 182.26,31.13 196.95,40.21" fill="none" stroke="#E87D0D" stroke-width="1.3" stroke-linejoin="round" stroke-linecap="round"/>
  <polygon points="128.00,16.00 112.55,17.07 118.79,17.38" fill="none" stroke="#E87D0D" stroke-width="1.3" stroke-linejoin="round" stroke-linecap="round"/>
  <polygon points="128.00,16.00 137.21,17.38 143.45,17.07" fill="none" stroke="#E87D0D" stroke-width="1.3" stroke-linejoin="round" stroke-linecap="round"/>
  <polygon points="97.39,20.26 103.35,19.76 112.55,17.07" fill="none" stroke="#E87D0D" stroke-width="1.3" stroke-linejoin="round" stroke-linecap="round"/>
  <polygon points="158.61,20.26 143.45,17.07 152.65,19.76" fill="none" stroke="#E87D0D" stroke-width="1.3" stroke-linejoin="round" stroke-linecap="round"/>
  <polygon points="97.39,20.26 82.82,25.52 87.88,24.48" fill="none" stroke="#E87D0D" stroke-width="1.3" stroke-linejoin="round" stroke-linecap="round"/>
  <polygon points="158.61,20.26 168.12,24.48 173.18,25.52" fill="none" stroke="#E87D0D" stroke-width="1.3" stroke-linejoin="round" stroke-linecap="round"/>
  <polygon points="69.12,32.73 73.74,31.13 82.82,25.52" fill="none" stroke="#E87D0D" stroke-width="1.3" stroke-linejoin="round" stroke-linecap="round"/>
  <polygon points="186.88,32.73 173.18,25.52 182.26,31.13" fill="none" stroke="#E87D0D" stroke-width="1.3" stroke-linejoin="round" stroke-linecap="round"/>
</svg>
